<svg width="153" height="58" viewBox="0 0 153 58" fill="none" xmlns="http://www.w3.org/2000/svg">
<path d="M29.6494 9.49329L42.6673 16.7984C44.4837 17.8178 45.6072 19.7297 45.6072 21.8021V36.198C45.6072 38.2702 44.4837 40.1823 42.6673 41.2015L29.6494 48.5066C27.8834 49.4977 25.7238 49.4977 23.9577 48.5066L10.9398 41.2015C9.12331 40.1823 8 38.2702 8 36.198V21.8021C8 19.7297 9.12331 17.8178 10.9398 16.7984L23.9577 9.49329C25.7238 8.50224 27.8834 8.50224 29.6494 9.49329ZM10.1696 21.8604V36.198C10.1696 37.4845 10.8683 38.6734 12.0016 39.3095L24.8347 46.5108C25.0008 46.5752 25.1779 46.6085 25.3572 46.6085C26.156 46.6085 26.8036 45.961 26.8036 45.1622V33.5736C26.8036 31.6849 25.7523 29.9533 24.0767 29.082L23.1214 28.5853C22.8961 28.4893 22.6737 28.3842 22.4546 28.2699L10.1696 21.8604ZM23.6284 26.9876C25.9342 28.1906 27.6792 28.1906 29.985 26.9876L42.4479 19.9909C42.141 19.2881 41.6087 18.6886 40.9123 18.2978L28.5877 11.3854C27.4811 10.7644 26.1261 10.7644 25.0195 11.3854L12.7181 18.2978C12.0218 18.6886 11.4895 19.2881 11.1826 19.9909L23.6284 26.9876ZM26.8036 13.8125C29.5156 13.8125 31.7296 15.1454 31.8599 16.8202L31.866 19.6886C31.866 21.4361 29.5995 22.8527 26.8036 22.8527C24.0076 22.8527 21.7411 21.4361 21.7411 19.6886V16.8202C21.8776 15.1454 24.0915 13.8125 26.8036 13.8125ZM26.8041 18.875C29.1527 18.875 31.0567 17.923 31.0567 16.7487C31.0567 15.5745 29.1527 14.6225 26.8041 14.6225C24.4556 14.6225 22.5517 15.5745 22.5517 16.7487C22.5517 17.923 24.4556 18.875 26.8041 18.875Z" fill="#4949F8"/>
<path fill-rule="evenodd" clip-rule="evenodd" d="M56.594 31.9485C56.594 33.1501 56.903 34.1157 57.521 34.8452C58.1389 35.5748 58.9543 35.9395 59.9671 35.9395C60.9455 35.9395 61.7437 35.5705 62.3617 34.8324C62.9797 34.0942 63.2887 33.1244 63.2887 31.9228C63.2887 30.7383 62.9883 29.7942 62.3875 29.0904C61.7867 28.3866 60.9885 28.0347 59.9928 28.0347C58.9972 28.0347 58.1819 28.3909 57.5467 29.1033C56.9116 29.8157 56.594 30.7641 56.594 31.9485ZM66.1725 19.6149V38.2569H64.4849C64.0381 38.2569 63.629 38.0062 63.4261 37.6081C63.3173 37.3946 63.2629 37.187 63.2629 36.9853C62.9163 37.3815 62.6407 37.7142 61.9884 38.0747C61.336 38.4352 60.4735 38.5659 59.6324 38.5659C57.8471 38.5659 56.3966 37.9394 55.2808 36.6863C54.1651 35.4331 53.6072 33.8539 53.6072 31.9485C53.6072 30.1118 54.1694 28.5583 55.2937 27.288C56.4181 26.0177 57.8471 25.3826 59.5809 25.3826C60.5765 25.3826 61.379 25.5628 61.9884 25.9233C62.5977 26.2838 63.0226 26.7044 63.2629 27.185V19.6149H66.1725ZM76.8304 25.5628V28.6012H76.4462C74.1975 28.6012 73.0731 29.8285 73.0731 32.2832V38.2569H70.0863V25.7173H72.0233C72.3669 25.7173 72.6714 25.9389 72.7771 26.2658L73.0731 27.1811C73.2157 26.884 73.6119 26.2244 74.3051 25.8936C74.9983 25.5628 75.8025 25.5628 76.6264 25.5628H76.8304ZM78.5041 34.8581C78.5041 33.7938 78.8517 32.9398 79.5469 32.2961C80.2421 31.6524 81.1562 31.2447 82.2892 31.0731L85.5077 30.5838C86.1257 30.498 86.4347 30.1976 86.4347 29.6826C86.4347 29.1162 86.2373 28.657 85.8425 28.3051C85.4477 27.9532 84.8554 27.7772 84.0658 27.7772C83.3105 27.7772 82.7097 27.9875 82.2634 28.4081C81.8171 28.8286 81.5596 29.3736 81.491 30.0431L78.7992 30.0174C78.9194 28.8844 79.4225 27.3266 80.3838 26.5284C81.345 25.7302 82.5638 25.3311 84.0401 25.3311C85.8596 25.3311 87.2028 25.7688 88.0697 26.6443C88.9366 27.5197 89.37 28.6441 89.37 30.0174V36.2485C89.37 37.0725 89.4215 37.7419 89.5245 38.2569H87.9184C87.7486 38.2569 87.5803 38.2257 87.4218 38.165C86.8892 37.9607 86.6228 37.6282 86.6228 37.1676C86.0287 38.1579 84.5035 38.6431 82.7526 38.6431C81.4824 38.6431 80.4567 38.2698 79.6757 37.5231C78.8946 36.7764 78.5041 35.888 78.5041 34.8581ZM83.3191 36.3C84.2461 36.3 84.9971 36.0468 85.5721 35.5404C86.1472 35.034 86.4347 34.2058 86.4347 33.0557V32.4892L83.1646 32.9785C82.0488 33.1673 81.491 33.7337 81.491 34.6779C81.491 35.1242 81.654 35.5061 81.9802 35.8237C82.3063 36.1412 82.7526 36.3 83.3191 36.3ZM98.5365 22.5602C98.0387 22.5602 97.6053 22.7018 97.2362 22.985C96.8672 23.2682 96.6826 23.7618 96.6826 24.4656V25.7173H99.5922V28.318H96.6826V38.2569H93.67V28.318H91.4814V25.7173H92.341C93.075 25.7173 93.67 25.1223 93.67 24.3883C93.67 22.9979 94.0734 21.8993 94.8802 21.0925C95.687 20.2857 96.7427 19.8823 98.0473 19.8823H99.5922V22.5602H98.5365ZM106.62 21.9323V25.7688H109.22V28.4209H106.62V34.2401C106.62 34.7894 106.748 35.1885 107.006 35.4374C107.263 35.6863 107.667 35.8108 108.216 35.8108H108.626V38.4629H107.418C106.25 38.4629 105.332 38.1325 104.663 37.4716C103.993 36.8107 103.658 35.8966 103.658 34.7294V28.4209H101.341V25.7688H101.985C102.62 25.7688 103.101 25.5886 103.427 25.2281C103.753 24.8676 103.916 24.3956 103.916 23.8119V21.9323H106.62ZM111.641 19.5555H114.55V27.2286C114.791 26.7479 115.29 26.3531 115.899 25.9926C116.509 25.6322 117.478 25.3984 118.474 25.3984C120.208 25.3984 121.593 25.9583 122.718 27.2286C123.842 28.4989 124.218 30.0979 124.218 31.9346C124.218 33.8401 123.846 35.3737 122.73 36.6268C121.615 37.8799 120.061 38.5699 118.276 38.5699C117.435 38.5699 116.675 38.3758 116.023 38.0153C115.371 37.6548 114.897 37.322 114.55 36.9259C114.55 37.1276 114.496 37.3352 114.387 37.5487C114.184 37.9468 113.775 38.1975 113.328 38.1975H111.641V19.5555ZM120.286 34.8581C120.921 34.1371 121.239 33.1673 121.239 31.9485C121.239 30.7297 120.93 29.7728 120.312 29.0775C119.694 28.3823 118.879 28.0347 117.866 28.0347C116.887 28.0347 116.081 28.3823 115.446 29.0775C114.81 29.7728 114.493 30.7297 114.493 31.9485C114.493 33.1501 114.81 34.1114 115.446 34.8324C116.081 35.5533 116.887 35.9138 117.866 35.9138C118.862 35.9138 119.668 35.5619 120.286 34.8581ZM127.135 28.6665H125.901V25.6955H128.872V25.7173H130.097V38.2569H127.135V28.6665ZM127.238 22.679C126.861 22.3014 126.672 21.8465 126.672 21.3143C126.672 20.7822 126.861 20.323 127.238 19.9368C127.616 19.5505 128.071 19.3574 128.603 19.3574C129.152 19.3574 129.616 19.5462 129.994 19.9239C130.371 20.3015 130.56 20.765 130.56 21.3143C130.56 21.8465 130.371 22.3014 129.994 22.679C129.616 23.0566 129.152 23.2455 128.603 23.2455C128.071 23.2455 127.616 23.0566 127.238 22.679ZM137.744 21.8808V25.7173H140.344V28.3694H137.744V34.1886C137.744 34.7379 137.873 35.137 138.13 35.3859C138.388 35.6349 138.791 35.7593 139.34 35.7593H139.75V38.4114H138.542C137.375 38.4114 136.456 38.081 135.787 37.4201C135.117 36.7592 134.783 35.8451 134.783 34.6779V28.3694H132.465V25.7173H133.109C133.744 25.7173 134.225 25.5371 134.551 25.1766C134.877 24.8161 135.04 24.3441 135.04 23.7604V21.8808H137.744Z" fill="#4949F8"/>
</svg>
