<svg width="25" height="25" viewBox="0 0 25 25" fill="none" xmlns="http://www.w3.org/2000/svg">
<g clip-path="url(#clip0_4023_7609)">
<path fill-rule="evenodd" clip-rule="evenodd" d="M12.4284 1.16374C5.77096 1.16374 0.37207 6.56173 0.37207 13.22C0.37207 18.5473 3.82625 23.065 8.61684 24.6599C9.21983 24.7716 9.44145 24.3978 9.44145 24.0792C9.44145 23.7917 9.42943 22.8421 9.42453 21.8354C6.07005 22.5648 5.36292 20.4123 5.36292 20.4123C4.81464 19.0185 4.02428 18.6478 4.02428 18.6478C2.93043 17.8988 4.10751 17.9153 4.10751 17.9153C5.31793 17.9999 5.95521 19.1569 5.95521 19.1569C7.03127 21.0002 8.7766 20.4666 9.46413 20.1591C9.57272 19.3798 9.88423 18.8476 10.2295 18.5464C7.55144 18.2424 4.73631 17.2082 4.73631 12.5881C4.73631 11.2721 5.20803 10.1961 5.97834 9.35233C5.85287 9.04798 5.43989 7.82241 6.0945 6.16205C6.0945 6.16205 7.10689 5.83764 9.4112 7.39786C10.3724 7.1313 11.4035 6.9969 12.4275 6.99245C13.4523 6.9969 14.4852 7.13084 15.4478 7.39786C17.749 5.83855 18.7604 6.16205 18.7604 6.16205C19.416 7.82286 19.0048 9.0493 18.8793 9.35237C19.6523 10.1961 20.12 11.2721 20.12 12.5881C20.12 17.2189 17.2986 18.237 14.6147 18.5357C15.0473 18.9094 15.4335 19.6433 15.4335 20.7674C15.4335 22.3797 15.4197 23.6791 15.4197 24.0756C15.4197 24.3965 15.6369 24.7716 16.2483 24.6541C21.0362 23.0583 24.486 18.5401 24.486 13.216C24.486 6.55856 19.088 1.15967 12.4293 1.15967L12.4284 1.1637L12.4284 1.16374Z" fill="#807BF9"/>
</g>
<defs>
<clipPath id="clip0_4023_7609">
<rect width="24.1135" height="24.1135" fill="white" transform="translate(0.37207 0.863403)"/>
</clipPath>
</defs>
</svg>
