<svg width="39" height="42" viewBox="0 0 39 42" fill="none" xmlns="http://www.w3.org/2000/svg">
<path d="M22.5731 1.56406L35.6525 8.90372C37.4775 9.92793 38.6063 11.8489 38.6063 13.9311V28.395C38.6063 30.4771 37.4775 32.3982 35.6525 33.4222L22.5731 40.7618C20.7987 41.7576 18.6289 41.7576 16.8544 40.7618L3.77504 33.4222C1.94991 32.3982 0.821289 30.4771 0.821289 28.395V13.9311C0.821289 11.8489 1.94991 9.92793 3.77504 8.90372L16.8544 1.56406C18.6289 0.568326 20.7987 0.568326 22.5731 1.56406ZM3.00119 13.9896V28.395C3.00119 29.6876 3.70311 30.8822 4.84183 31.5212L17.7355 38.7566C17.9024 38.8213 18.0804 38.8548 18.2605 38.8548C19.0631 38.8548 19.7138 38.2041 19.7138 37.4016V25.7582C19.7138 23.8606 18.6575 22.1208 16.974 21.2454L16.0142 20.7463C15.7879 20.6499 15.5644 20.5443 15.3443 20.4295L3.00119 13.9896ZM16.5236 19.141C18.8403 20.3497 20.5936 20.3497 22.9102 19.141L35.4321 12.1113C35.1238 11.4052 34.5889 10.8028 33.8892 10.4102L21.5063 3.4651C20.3945 2.84118 19.0331 2.84118 17.9212 3.4651L5.56174 10.4102C4.86207 10.8028 4.32729 11.4052 4.01894 12.1113L16.5236 19.141ZM19.7138 5.9037C22.4386 5.9037 24.6631 7.24288 24.794 8.92563L24.8001 11.8076C24.8001 13.5633 22.5229 14.9866 19.7138 14.9866C16.9046 14.9866 14.6273 13.5633 14.6273 11.8076V8.92563C14.7645 7.24288 16.9889 5.9037 19.7138 5.9037ZM19.7143 10.9901C22.074 10.9901 23.987 10.0337 23.987 8.85383C23.987 7.67398 22.074 6.71753 19.7143 6.71753C17.3546 6.71753 15.4417 7.67398 15.4417 8.85383C15.4417 10.0337 17.3546 10.9901 19.7143 10.9901Z" fill="#4949F8"/>
</svg>
