<svg width="25" height="25" viewBox="0 0 25 25" fill="none" xmlns="http://www.w3.org/2000/svg">
<g clip-path="url(#clip0_4023_7605)">
<path d="M24.2448 12.9201C24.2448 19.5787 18.8466 24.9769 12.1881 24.9769C5.52956 24.9769 0.131348 19.5787 0.131348 12.9201C0.131348 6.26115 5.52956 0.863403 12.1881 0.863403C18.8466 0.863403 24.2448 6.26115 24.2448 12.9201Z" fill="#807BF9"/>
<path d="M13.7955 12.9201H10.3796V9.30307H13.7955C14.7944 9.30307 15.604 10.1127 15.604 11.1116C15.604 12.1105 14.7944 12.9201 13.7955 12.9201ZM13.7955 6.89172H7.96826V18.9485H10.3796V15.3314H13.7955C16.1263 15.3314 18.0154 13.4419 18.0154 11.1116C18.0154 8.78077 16.1263 6.89172 13.7955 6.89172Z" fill="white"/>
</g>
<defs>
<clipPath id="clip0_4023_7605">
<rect width="24.1135" height="24.1135" fill="white" transform="translate(0.131348 0.863403)"/>
</clipPath>
</defs>
</svg>
