<svg width="29" height="28" viewBox="0 0 29 28" fill="none" xmlns="http://www.w3.org/2000/svg">
<path d="M13.0734 1.50777C13.5224 0.1258 15.4776 0.125798 15.9266 1.50776L18.2045 8.51841C18.4053 9.13644 18.9812 9.55488 19.6311 9.55488H27.0025C28.4556 9.55488 29.0597 11.4143 27.8842 12.2684L21.9206 16.6012C21.3948 16.9832 21.1748 17.6602 21.3757 18.2783L23.6535 25.2889C24.1026 26.6709 22.5209 27.8201 21.3453 26.966L15.3817 22.6332C14.8559 22.2512 14.1441 22.2512 13.6183 22.6332L7.65471 26.966C6.47914 27.8201 4.89742 26.6709 5.34645 25.2889L7.62435 18.2783C7.82516 17.6602 7.60517 16.9832 7.07944 16.6012L1.11583 12.2684C-0.0597379 11.4143 0.544424 9.55488 1.99751 9.55488H9.36893C10.0188 9.55488 10.5947 9.13644 10.7955 8.51841L13.0734 1.50777Z" fill="#4B49F9"/>
</svg>
