<svg width="37" height="37" viewBox="0 0 37 37" fill="none" xmlns="http://www.w3.org/2000/svg">
<path d="M17.0734 4.50777C17.5224 3.1258 19.4776 3.1258 19.9266 4.50776L22.2045 11.5184C22.4053 12.1364 22.9812 12.5549 23.6311 12.5549H31.0025C32.4556 12.5549 33.0597 14.4143 31.8842 15.2684L25.9206 19.6012C25.3948 19.9832 25.1748 20.6602 25.3757 21.2783L27.6535 28.2889C28.1026 29.6709 26.5209 30.8201 25.3453 29.966L19.3817 25.6332C18.8559 25.2512 18.1441 25.2512 17.6183 25.6332L11.6547 29.966C10.4791 30.8201 8.89742 29.6709 9.34645 28.2889L11.6243 21.2783C11.8252 20.6602 11.6052 19.9832 11.0794 19.6012L5.11583 15.2684C3.94026 14.4143 4.54442 12.5549 5.99751 12.5549H13.3689C14.0188 12.5549 14.5947 12.1364 14.7955 11.5184L17.0734 4.50777Z" fill="#D9D9D9"/>
<mask id="mask0_2493_32156" style="mask-type:alpha" maskUnits="userSpaceOnUse" x="4" y="3" width="29" height="28">
<path d="M17.0734 4.50777C17.5224 3.1258 19.4776 3.1258 19.9266 4.50776L22.2045 11.5184C22.4053 12.1364 22.9812 12.5549 23.6311 12.5549H31.0025C32.4556 12.5549 33.0597 14.4143 31.8842 15.2684L25.9206 19.6012C25.3948 19.9832 25.1748 20.6602 25.3757 21.2783L27.6535 28.2889C28.1026 29.6709 26.5209 30.8201 25.3453 29.966L19.3817 25.6332C18.8559 25.2512 18.1441 25.2512 17.6183 25.6332L11.6547 29.966C10.4791 30.8201 8.89742 29.6709 9.34645 28.2889L11.6243 21.2783C11.8252 20.6602 11.6052 19.9832 11.0794 19.6012L5.11583 15.2684C3.94026 14.4143 4.54442 12.5549 5.99751 12.5549H13.3689C14.0188 12.5549 14.5947 12.1364 14.7955 11.5184L17.0734 4.50777Z" fill="#D9D9D9"/>
</mask>
<g mask="url(#mask0_2493_32156)">
<rect x="3.5" y="1.61719" width="21" height="31.5" fill="#4B49F9"/>
</g>
</svg>
