<svg width="25" height="25" viewBox="0 0 25 25" fill="none" xmlns="http://www.w3.org/2000/svg">
<g clip-path="url(#clip0_4023_7602)">
<path fill-rule="evenodd" clip-rule="evenodd" d="M12.9469 0.863281C19.6056 0.863281 25.0036 6.26126 25.0036 12.92C25.0036 19.5788 19.6056 24.9768 12.9469 24.9768C6.28812 24.9768 0.890137 19.5788 0.890137 12.92C0.890137 6.26126 6.28812 0.863281 12.9469 0.863281Z" fill="#807BF9"/>
<path d="M15.8972 8.28333H17.4703L14.0335 12.2115L18.0767 17.5567H14.9108L12.4313 14.3148L9.5941 17.5567H8.01999L11.696 13.3552L7.81738 8.28333H11.0635L13.3048 11.2465L15.8972 8.28333ZM15.345 16.6151H16.2168L10.5899 9.17552H9.65453L15.345 16.6151Z" fill="white"/>
</g>
<defs>
<clipPath id="clip0_4023_7602">
<rect width="24.1135" height="24.1135" fill="white" transform="translate(0.890137 0.863281)"/>
</clipPath>
</defs>
</svg>
